<svg width="8" height="11" viewBox="0 0 8 11" fill="none" xmlns="http://www.w3.org/2000/svg">
<path fill-rule="evenodd" clip-rule="evenodd" d="M0 0.430095V0.86019H0.116129H0.232258V1.10229C0.232258 1.49013 0.350787 1.6653 0.628955 1.6886C0.7904 1.70213 0.799071 1.7159 0.799639 1.96016C0.800619 2.37467 0.939045 3.06201 1.11097 3.50618C1.20359 3.74547 1.40565 4.11056 1.54328 4.28726C1.71672 4.50997 1.88774 4.68459 2.2001 4.95785C2.56893 5.28052 2.63234 5.36083 2.63215 5.50521C2.63203 5.63656 2.56052 5.72959 2.2415 6.01359C1.5679 6.61319 1.27179 7.02371 1.05293 7.66132C0.911381 8.07374 0.802168 8.66599 0.800155 9.03199C0.798813 9.27498 0.784594 9.30569 0.673419 9.30569C0.51969 9.30569 0.3576 9.4045 0.290323 9.53929C0.24191 9.63626 0.232258 9.69799 0.232258 9.91074V10.1659H0.116129H0V10.5829V11H4H8V10.5844V10.1689L7.89032 10.1608L7.78065 10.1528L7.76774 9.86403C7.756 9.60099 7.74862 9.56698 7.68532 9.4832C7.60036 9.37077 7.47154 9.30569 7.33391 9.30569H7.23045L7.21373 9.07761C7.12919 7.92451 6.86072 7.18524 6.28952 6.53262C6.20748 6.43888 5.98957 6.23137 5.80532 6.0715C5.44939 5.76267 5.37628 5.67994 5.35234 5.55904C5.32545 5.42321 5.39912 5.30987 5.65564 5.0925C6.02955 4.77564 6.35554 4.44585 6.51125 4.22692C6.89347 3.68941 7.12777 2.96539 7.19845 2.10345C7.2135 1.91986 7.22581 1.75416 7.22581 1.73521C7.22581 1.71225 7.27344 1.69679 7.3688 1.68879C7.52036 1.67609 7.60994 1.62581 7.70163 1.50189C7.74617 1.44176 7.75626 1.38352 7.76356 1.14509L7.77231 0.86019H7.88614H8V0.430095V0H4H0V0.430095ZM6.52049 2.00369C6.46625 3.02263 6.14052 3.75397 5.48852 4.32065C5.00735 4.73889 4.85572 4.8987 4.76674 5.08137C4.69004 5.23882 4.6839 5.27088 4.68431 5.51256C4.6847 5.74604 4.69231 5.78861 4.75613 5.9144C4.86477 6.12854 4.95595 6.23082 5.31267 6.53869C5.80263 6.96154 6.00483 7.21196 6.20663 7.64583C6.3889 8.03774 6.49143 8.48389 6.5207 9.01244L6.53693 9.30569H6.09817H5.65941L5.64366 9.06366C5.62539 8.78264 5.51907 8.42196 5.37693 8.15877C5.26408 7.94985 5.07775 7.69721 4.80981 7.38981C4.45879 6.98711 4.35644 6.84867 4.26062 6.64692C4.1759 6.46863 4.16697 6.42794 4.15894 6.18429C4.14364 5.71974 4.26524 5.29209 4.5143 4.93459C4.5823 4.83698 4.74356 4.63981 4.8727 4.49645C5.1224 4.21918 5.22328 4.06158 5.25231 3.90344L5.27027 3.80569H4.02867H2.7871L2.78733 3.87737C2.78769 3.98403 2.91391 4.18117 3.15035 4.44431C3.52465 4.86088 3.70449 5.18572 3.79644 5.61133C3.86519 5.92944 3.87099 6.3269 3.80963 6.50978C3.74444 6.704 3.55683 6.98002 3.2647 7.31161C2.62934 8.03268 2.39977 8.47936 2.35698 9.07761L2.34067 9.30569H1.90581H1.47097L1.47117 9.16884C1.47172 8.81752 1.57345 8.22998 1.69115 7.8981C1.85775 7.42844 2.08854 7.08348 2.47177 6.73122C3.0265 6.22136 3.12268 6.11874 3.20588 5.94805C3.27143 5.81353 3.28906 5.7407 3.29809 5.56681C3.32039 5.13781 3.20062 4.93016 2.65623 4.45401C2.21551 4.06854 2.00823 3.81822 1.82232 3.44694C1.64852 3.09986 1.51265 2.51626 1.48026 1.97805L1.4632 1.69431H4.00008H6.53695L6.52049 2.00369Z" fill="black"/>
</svg>
