<svg width="13" height="11" viewBox="0 0 13 11" fill="none" xmlns="http://www.w3.org/2000/svg">
<path fill-rule="evenodd" clip-rule="evenodd" d="M5.8522 0.0118026C5.8522 0.0185418 5.81681 0.0236052 5.76961 0.0236052C5.72242 0.0236052 5.68702 0.0286685 5.68702 0.0354077C5.68702 0.0418991 5.66047 0.0472103 5.62803 0.0472103C5.59558 0.0472103 5.56903 0.0525215 5.56903 0.0590129C5.56903 0.0655043 5.54779 0.0708155 5.52184 0.0708155C5.49588 0.0708155 5.47464 0.0761266 5.47464 0.082618C5.47464 0.0891094 5.45871 0.0944206 5.43925 0.0944206C5.41978 0.0944206 5.40385 0.0997318 5.40385 0.106223C5.40385 0.112715 5.38792 0.118026 5.36845 0.118026C5.34898 0.118026 5.33306 0.123337 5.33306 0.129828C5.33306 0.13632 5.31713 0.141631 5.29766 0.141631C5.27819 0.141631 5.26226 0.146942 5.26226 0.153433C5.26226 0.159925 5.25164 0.165236 5.23867 0.165236C5.22569 0.165236 5.21507 0.170547 5.21507 0.177039C5.21507 0.18353 5.20445 0.188841 5.19147 0.188841C5.17849 0.188841 5.16787 0.194152 5.16787 0.200644C5.16787 0.207135 5.15725 0.212446 5.14428 0.212446C5.1313 0.212446 5.12068 0.217758 5.12068 0.224249C5.12068 0.23074 5.11006 0.236052 5.09708 0.236052C5.0841 0.236052 5.07348 0.241363 5.07348 0.247854C5.07348 0.254346 5.06403 0.259657 5.05249 0.259657C5.04094 0.259657 5.02384 0.270279 5.01449 0.283262C5.00513 0.296245 4.9892 0.306867 4.97909 0.306867C4.96898 0.306867 4.95305 0.317489 4.9437 0.330472C4.93434 0.343455 4.91841 0.354077 4.9083 0.354077C4.89819 0.354077 4.88226 0.3647 4.8729 0.377682C4.86355 0.390665 4.84881 0.401288 4.84015 0.401288C4.83149 0.401288 4.79313 0.433155 4.75491 0.472103C4.7167 0.511052 4.67965 0.542918 4.67258 0.542918C4.65588 0.542918 4.57793 0.620886 4.57793 0.637599C4.57793 0.644669 4.54608 0.681729 4.50714 0.719957C4.4682 0.758186 4.43635 0.796556 4.43635 0.805219C4.43635 0.813882 4.42573 0.828623 4.41275 0.837983C4.39977 0.847342 4.38915 0.863276 4.38915 0.873391C4.38915 0.883505 4.37853 0.899439 4.36555 0.908798C4.35258 0.918158 4.34196 0.934091 4.34196 0.944206C4.34196 0.954321 4.33134 0.970254 4.31836 0.979614C4.30538 0.988973 4.29476 1.00608 4.29476 1.01763C4.29476 1.02917 4.28945 1.03863 4.28296 1.03863C4.27647 1.03863 4.27116 1.04925 4.27116 1.06223C4.27116 1.07521 4.26585 1.08584 4.25937 1.08584C4.25288 1.08584 4.24757 1.09529 4.24757 1.10683C4.24757 1.11839 4.23695 1.13549 4.22397 1.14485C4.21099 1.15421 4.20037 1.17131 4.20037 1.18287C4.20037 1.19441 4.19506 1.20386 4.18857 1.20386C4.18208 1.20386 4.17677 1.21332 4.17677 1.22486C4.17677 1.23641 4.16615 1.25352 4.15318 1.26288C4.1402 1.27224 4.12958 1.28934 4.12958 1.30089C4.12958 1.31243 4.12427 1.32189 4.11778 1.32189C4.11129 1.32189 4.10598 1.33251 4.10598 1.34549C4.10598 1.35848 4.10067 1.3691 4.09418 1.3691C4.08769 1.3691 4.08238 1.37855 4.08238 1.3901C4.08238 1.40165 4.07176 1.41875 4.05879 1.42811C4.04581 1.43747 4.03519 1.45457 4.03519 1.46613C4.03519 1.47767 4.02988 1.48712 4.02339 1.48712C4.0169 1.48712 4.01159 1.49775 4.01159 1.51073C4.01159 1.52371 4.00628 1.53433 3.99979 1.53433C3.9933 1.53433 3.98799 1.54379 3.98799 1.55533C3.98799 1.56689 3.97737 1.58399 3.9644 1.59335C3.95142 1.60271 3.9408 1.61981 3.9408 1.63136C3.9408 1.64291 3.93549 1.65236 3.929 1.65236C3.92251 1.65236 3.9172 1.66298 3.9172 1.67597C3.9172 1.68895 3.91189 1.69957 3.9054 1.69957C3.89891 1.69957 3.8936 1.70902 3.8936 1.72057C3.8936 1.73212 3.88298 1.74922 3.87001 1.75858C3.85703 1.76794 3.84641 1.78505 3.84641 1.7966C3.84641 1.80814 3.8411 1.8176 3.83461 1.8176C3.82812 1.8176 3.82281 1.82705 3.82281 1.83859C3.82281 1.85015 3.81219 1.86725 3.79921 1.87661C3.78623 1.88597 3.77561 1.90307 3.77561 1.91463C3.77561 1.92617 3.77031 1.93562 3.76382 1.93562C3.75733 1.93562 3.75202 1.94624 3.75202 1.95923C3.75202 1.97221 3.74671 1.98283 3.74022 1.98283C3.73373 1.98283 3.72842 1.99229 3.72842 2.00383C3.72842 2.01538 3.7178 2.03249 3.70482 2.04185C3.69184 2.05121 3.68122 2.06831 3.68122 2.07986C3.68122 2.0914 3.67591 2.10086 3.66943 2.10086C3.66294 2.10086 3.65763 2.11148 3.65763 2.12446C3.65763 2.13745 3.65232 2.14807 3.64583 2.14807C3.63934 2.14807 3.63403 2.15752 3.63403 2.16907C3.63403 2.18062 3.62341 2.19772 3.61043 2.20708C3.59745 2.21644 3.58683 2.23354 3.58683 2.2451C3.58683 2.25664 3.58152 2.26609 3.57504 2.26609C3.56855 2.26609 3.56324 2.27672 3.56324 2.2897C3.56324 2.30268 3.55793 2.3133 3.55144 2.3133C3.54495 2.3133 3.53964 2.32276 3.53964 2.3343C3.53964 2.34586 3.52902 2.36296 3.51604 2.37232C3.50306 2.38168 3.49244 2.39878 3.49244 2.41033C3.49244 2.42188 3.48713 2.43133 3.48064 2.43133C3.47416 2.43133 3.46885 2.44078 3.46885 2.45233C3.46885 2.46388 3.45823 2.48098 3.44525 2.49034C3.43227 2.4997 3.42165 2.5168 3.42165 2.52836C3.42165 2.5399 3.41634 2.54936 3.40985 2.54936C3.40336 2.54936 3.39805 2.55998 3.39805 2.57296C3.39805 2.58594 3.39274 2.59657 3.38625 2.59657C3.37977 2.59657 3.37446 2.60602 3.37446 2.61756C3.37446 2.62912 3.36384 2.64622 3.35086 2.65558C3.33788 2.66494 3.32726 2.68204 3.32726 2.6936C3.32726 2.70514 3.32195 2.71459 3.31546 2.71459C3.30897 2.71459 3.30366 2.72521 3.30366 2.7382C3.30366 2.75118 3.29835 2.7618 3.29186 2.7618C3.28537 2.7618 3.28007 2.77126 3.28007 2.7828C3.28007 2.79435 3.26945 2.81146 3.25647 2.82082C3.24349 2.83017 3.23287 2.84728 3.23287 2.85883C3.23287 2.87037 3.22756 2.87983 3.22107 2.87983C3.21458 2.87983 3.20927 2.88928 3.20927 2.90083C3.20927 2.91238 3.19865 2.92948 3.18567 2.93884C3.1727 2.9482 3.16208 2.9653 3.16208 2.97686C3.16208 2.9884 3.15677 2.99785 3.15028 2.99785C3.14379 2.99785 3.13848 3.00848 3.13848 3.02146C3.13848 3.03444 3.13317 3.04506 3.12668 3.04506C3.12019 3.04506 3.11488 3.05452 3.11488 3.06606C3.11488 3.07762 3.10426 3.09472 3.09128 3.10408C3.07831 3.11344 3.06769 3.13054 3.06769 3.14209C3.06769 3.15364 3.06238 3.16309 3.05589 3.16309C3.0494 3.16309 3.04409 3.17371 3.04409 3.1867C3.04409 3.19968 3.03878 3.2103 3.03229 3.2103C3.0258 3.2103 3.02049 3.21975 3.02049 3.2313C3.02049 3.24285 3.00987 3.25995 2.99689 3.26931C2.98392 3.27867 2.9733 3.29577 2.9733 3.30733C2.9733 3.31887 2.96799 3.32833 2.9615 3.32833C2.95501 3.32833 2.9497 3.33895 2.9497 3.35193C2.9497 3.36491 2.94439 3.37554 2.9379 3.37554C2.93141 3.37554 2.9261 3.38499 2.9261 3.39653C2.9261 3.40809 2.91548 3.42519 2.9025 3.43455C2.88953 3.44391 2.87891 3.46101 2.87891 3.47257C2.87891 3.48411 2.8736 3.49356 2.86711 3.49356C2.86062 3.49356 2.85531 3.50302 2.85531 3.51456C2.85531 3.52611 2.84469 3.54322 2.83171 3.55258C2.81873 3.56193 2.80811 3.57904 2.80811 3.59059C2.80811 3.60213 2.8028 3.61159 2.79631 3.61159C2.78983 3.61159 2.78452 3.62221 2.78452 3.63519C2.78452 3.64818 2.77921 3.6588 2.77272 3.6588C2.76623 3.6588 2.76092 3.66825 2.76092 3.6798C2.76092 3.69135 2.7503 3.70845 2.73732 3.71781C2.72434 3.72717 2.71372 3.74427 2.71372 3.75583C2.71372 3.76737 2.70841 3.77682 2.70192 3.77682C2.69544 3.77682 2.69013 3.78745 2.69013 3.80043C2.69013 3.81341 2.68482 3.82403 2.67833 3.82403C2.67184 3.82403 2.66653 3.83349 2.66653 3.84503C2.66653 3.85659 2.65591 3.87369 2.64293 3.88305C2.62995 3.89241 2.61933 3.90951 2.61933 3.92106C2.61933 3.93261 2.61402 3.94206 2.60753 3.94206C2.60104 3.94206 2.59574 3.95268 2.59574 3.96567C2.59574 3.97865 2.59043 3.98927 2.58394 3.98927C2.57745 3.98927 2.57214 3.99872 2.57214 4.01027C2.57214 4.02182 2.56152 4.03892 2.54854 4.04828C2.53556 4.05764 2.52494 4.07474 2.52494 4.0863C2.52494 4.09784 2.51963 4.1073 2.51314 4.1073C2.50665 4.1073 2.50134 4.11675 2.50134 4.12829C2.50134 4.13985 2.49073 4.15695 2.47775 4.16631C2.46477 4.17567 2.45415 4.19277 2.45415 4.20433C2.45415 4.21587 2.44884 4.22532 2.44235 4.22532C2.43586 4.22532 2.43055 4.23594 2.43055 4.24893C2.43055 4.26191 2.42524 4.27253 2.41875 4.27253C2.41226 4.27253 2.40695 4.28199 2.40695 4.29353C2.40695 4.30508 2.39634 4.32219 2.38336 4.33155C2.37038 4.3409 2.35976 4.35801 2.35976 4.36956C2.35976 4.3811 2.35445 4.39056 2.34796 4.39056C2.34147 4.39056 2.33616 4.40118 2.33616 4.41416C2.33616 4.42715 2.33085 4.43777 2.32436 4.43777C2.31787 4.43777 2.31256 4.44722 2.31256 4.45877C2.31256 4.47032 2.30195 4.48742 2.28897 4.49678C2.27599 4.50614 2.26537 4.52324 2.26537 4.5348C2.26537 4.54634 2.26006 4.55579 2.25357 4.55579C2.24708 4.55579 2.24177 4.56642 2.24177 4.5794C2.24177 4.59238 2.23646 4.603 2.22997 4.603C2.22348 4.603 2.21817 4.61246 2.21817 4.624C2.21817 4.63556 2.20755 4.65266 2.19458 4.66202C2.1816 4.67138 2.17098 4.68848 2.17098 4.70003C2.17098 4.71158 2.16567 4.72103 2.15918 4.72103C2.15269 4.72103 2.14738 4.73048 2.14738 4.74203C2.14738 4.75358 2.13676 4.77068 2.12378 4.78004C2.1108 4.7894 2.10019 4.8065 2.10019 4.81806C2.10019 4.8296 2.09488 4.83906 2.08839 4.83906C2.0819 4.83906 2.07659 4.84968 2.07659 4.86266C2.07659 4.87564 2.07128 4.88627 2.06479 4.88627C2.0583 4.88627 2.05299 4.89572 2.05299 4.90726C2.05299 4.91882 2.04237 4.93592 2.02939 4.94528C2.01641 4.95464 2.0058 4.97174 2.0058 4.9833C2.0058 4.99484 2.00049 5.00429 1.994 5.00429C1.98751 5.00429 1.9822 5.01491 1.9822 5.0279C1.9822 5.04088 1.97689 5.0515 1.9704 5.0515C1.96391 5.0515 1.9586 5.06096 1.9586 5.0725C1.9586 5.08405 1.94798 5.10116 1.935 5.11052C1.92202 5.11987 1.9114 5.13698 1.9114 5.14853C1.9114 5.16007 1.9061 5.16953 1.89961 5.16953C1.89312 5.16953 1.88781 5.18015 1.88781 5.19313C1.88781 5.20612 1.8825 5.21674 1.87601 5.21674C1.86952 5.21674 1.86421 5.22619 1.86421 5.23774C1.86421 5.24929 1.85359 5.26639 1.84061 5.27575C1.82763 5.28511 1.81701 5.30221 1.81701 5.31377C1.81701 5.32531 1.81171 5.33476 1.80522 5.33476C1.79873 5.33476 1.79342 5.34422 1.79342 5.35576C1.79342 5.36732 1.7828 5.38442 1.76982 5.39378C1.75684 5.40314 1.74622 5.42024 1.74622 5.43179C1.74622 5.44334 1.74091 5.45279 1.73442 5.45279C1.72793 5.45279 1.72262 5.46341 1.72262 5.4764C1.72262 5.48938 1.71731 5.5 1.71083 5.5C1.70434 5.5 1.69903 5.50945 1.69903 5.521C1.69903 5.53255 1.68841 5.54965 1.67543 5.55901C1.66245 5.56837 1.65183 5.58547 1.65183 5.59703C1.65183 5.60857 1.64652 5.61803 1.64003 5.61803C1.63354 5.61803 1.62823 5.62865 1.62823 5.64163C1.62823 5.65461 1.62292 5.66524 1.61644 5.66524C1.60995 5.66524 1.60464 5.67469 1.60464 5.68623C1.60464 5.69779 1.59402 5.71489 1.58104 5.72425C1.56806 5.73361 1.55744 5.75071 1.55744 5.76227C1.55744 5.77381 1.55213 5.78326 1.54564 5.78326C1.53915 5.78326 1.53384 5.79272 1.53384 5.80426C1.53384 5.81581 1.52322 5.83292 1.51025 5.84227C1.49727 5.85163 1.48665 5.86874 1.48665 5.88029C1.48665 5.89183 1.48134 5.90129 1.47485 5.90129C1.46836 5.90129 1.46305 5.91191 1.46305 5.92489C1.46305 5.93788 1.45774 5.9485 1.45125 5.9485C1.44476 5.9485 1.43945 5.95795 1.43945 5.96949C1.43945 5.98105 1.42883 5.99815 1.41586 6.00751C1.40288 6.01687 1.39226 6.03397 1.39226 6.04553C1.39226 6.05707 1.38695 6.06652 1.38046 6.06652C1.37397 6.06652 1.36866 6.07715 1.36866 6.09013C1.36866 6.10311 1.36335 6.11373 1.35686 6.11373C1.35037 6.11373 1.34506 6.12319 1.34506 6.13473C1.34506 6.14629 1.33444 6.16339 1.32147 6.17275C1.30849 6.18211 1.29787 6.19921 1.29787 6.21076C1.29787 6.22231 1.29256 6.23176 1.28607 6.23176C1.27958 6.23176 1.27427 6.24238 1.27427 6.25537C1.27427 6.26835 1.26896 6.27897 1.26247 6.27897C1.25598 6.27897 1.25067 6.28842 1.25067 6.29997C1.25067 6.31152 1.24005 6.32862 1.22707 6.33798C1.2141 6.34734 1.20348 6.36444 1.20348 6.376C1.20348 6.38754 1.19817 6.397 1.19168 6.397C1.18519 6.397 1.17988 6.40645 1.17988 6.41799C1.17988 6.42955 1.16926 6.44665 1.15628 6.45601C1.1433 6.46537 1.13268 6.48247 1.13268 6.49403C1.13268 6.50557 1.12737 6.51502 1.12089 6.51502C1.1144 6.51502 1.10909 6.52564 1.10909 6.53863C1.10909 6.55161 1.10378 6.56223 1.09729 6.56223C1.0908 6.56223 1.08549 6.57169 1.08549 6.58323C1.08549 6.59478 1.07487 6.61189 1.06189 6.62124C1.04891 6.6306 1.03829 6.64771 1.03829 6.65926C1.03829 6.6708 1.03298 6.68026 1.0265 6.68026C1.02001 6.68026 1.0147 6.69088 1.0147 6.70386C1.0147 6.71685 1.00939 6.72747 1.0029 6.72747C0.996408 6.72747 0.991099 6.73692 0.991099 6.74846C0.991099 6.76002 0.98048 6.77712 0.967501 6.78648C0.954523 6.79584 0.943904 6.81294 0.943904 6.8245C0.943904 6.83604 0.938594 6.84549 0.932105 6.84549C0.925616 6.84549 0.920306 6.85612 0.920306 6.8691C0.920306 6.88208 0.914997 6.8927 0.908507 6.8927C0.902018 6.8927 0.896709 6.90216 0.896709 6.9137C0.896709 6.92526 0.88609 6.94236 0.873111 6.95172C0.860132 6.96108 0.849513 6.97818 0.849513 6.98973C0.849513 7.00128 0.844204 7.01073 0.837715 7.01073C0.831225 7.01073 0.825916 7.02018 0.825916 7.03173C0.825916 7.04328 0.815297 7.06038 0.802318 7.06974C0.789339 7.0791 0.778721 7.0962 0.778721 7.10776C0.778721 7.1193 0.773411 7.12876 0.766922 7.12876C0.760432 7.12876 0.755123 7.13938 0.755123 7.15236C0.755123 7.16534 0.749814 7.17597 0.743324 7.17597C0.736835 7.17597 0.731525 7.18542 0.731525 7.19696C0.731525 7.20852 0.720906 7.22562 0.707928 7.23498C0.694949 7.24434 0.68433 7.26144 0.68433 7.273C0.68433 7.28454 0.679021 7.29399 0.672531 7.29399C0.666042 7.29399 0.660733 7.30461 0.660733 7.3176C0.660733 7.33058 0.655423 7.3412 0.648934 7.3412C0.642444 7.3412 0.637135 7.35066 0.637135 7.3622C0.637135 7.37375 0.626516 7.39086 0.613537 7.40021C0.600559 7.40957 0.58994 7.42668 0.58994 7.43823C0.58994 7.44977 0.58463 7.45923 0.578141 7.45923C0.571652 7.45923 0.566342 7.46985 0.566342 7.48283C0.566342 7.49582 0.561033 7.50644 0.554543 7.50644C0.548054 7.50644 0.542745 7.51589 0.542745 7.52743C0.542745 7.53899 0.532126 7.55609 0.519147 7.56545C0.506168 7.57481 0.495549 7.59191 0.495549 7.60347C0.495549 7.61501 0.49024 7.62446 0.483751 7.62446C0.477261 7.62446 0.471952 7.63392 0.471952 7.64546C0.471952 7.65702 0.461333 7.67412 0.448354 7.68348C0.435376 7.69284 0.424757 7.70994 0.424757 7.72149C0.424757 7.73304 0.419447 7.74249 0.412958 7.74249C0.406469 7.74249 0.401159 7.75311 0.401159 7.76609C0.401159 7.77908 0.39585 7.7897 0.38936 7.7897C0.382871 7.7897 0.377561 7.79915 0.377561 7.8107C0.377561 7.82225 0.366943 7.83935 0.353964 7.84871C0.340985 7.85807 0.330366 7.87517 0.330366 7.88673C0.330366 7.89827 0.325057 7.90773 0.318567 7.90773C0.312078 7.90773 0.306769 7.91835 0.306769 7.93133C0.306769 7.94431 0.301459 7.95494 0.29497 7.95494C0.288481 7.95494 0.283171 7.96556 0.283171 7.97854C0.283171 7.99152 0.277862 8.00215 0.271372 8.00215C0.264883 8.00215 0.259574 8.01277 0.259574 8.02575C0.259574 8.03873 0.254264 8.04936 0.247775 8.04936C0.241285 8.04936 0.235976 8.05998 0.235976 8.07296C0.235976 8.08594 0.230666 8.09657 0.224177 8.09657C0.217688 8.09657 0.212378 8.10719 0.212378 8.12017C0.212378 8.13315 0.207069 8.14378 0.20058 8.14378C0.19409 8.14378 0.188781 8.1544 0.188781 8.16738C0.188781 8.18037 0.183471 8.19099 0.176982 8.19099C0.170493 8.19099 0.165183 8.20161 0.165183 8.21459C0.165183 8.22758 0.159874 8.2382 0.153384 8.2382C0.146895 8.2382 0.141586 8.25413 0.141586 8.27361C0.141586 8.29308 0.136276 8.30901 0.129787 8.30901C0.123297 8.30901 0.117988 8.32495 0.117988 8.34442C0.117988 8.3639 0.112679 8.37983 0.106189 8.37983C0.0996998 8.37983 0.0943904 8.39045 0.0943904 8.40343C0.0943904 8.41642 0.0890809 8.42704 0.0825916 8.42704C0.0761022 8.42704 0.0707928 8.44828 0.0707928 8.47425C0.0707928 8.50021 0.0654833 8.52146 0.058994 8.52146C0.0525046 8.52146 0.0471952 8.54802 0.0471952 8.58047C0.0471952 8.61293 0.0418857 8.63949 0.0353964 8.63949C0.0285177 8.63949 0.0235976 8.67882 0.0235976 8.73391C0.0235976 8.78899 0.0186775 8.82833 0.0117988 8.82833C0.00445995 8.82833 0 8.89521 0 9.00537C0 9.11552 0.00445995 9.1824 0.0117988 9.1824C0.0185359 9.1824 0.0235976 9.21781 0.0235976 9.26502C0.0235976 9.31223 0.0286593 9.34764 0.0353964 9.34764C0.0418857 9.34764 0.0471952 9.3742 0.0471952 9.40665C0.0471952 9.43911 0.0525046 9.46567 0.058994 9.46567C0.0654833 9.46567 0.0707928 9.48691 0.0707928 9.51288C0.0707928 9.53884 0.0761022 9.56009 0.0825916 9.56009C0.0890809 9.56009 0.0943904 9.57602 0.0943904 9.59549C0.0943904 9.61497 0.0996998 9.6309 0.106189 9.6309C0.112679 9.6309 0.117988 9.64684 0.117988 9.66631C0.117988 9.68578 0.123297 9.70172 0.129787 9.70172C0.136276 9.70172 0.141586 9.71765 0.141586 9.73712C0.141586 9.7566 0.146895 9.77253 0.153384 9.77253C0.159874 9.77253 0.165183 9.78315 0.165183 9.79614C0.165183 9.80912 0.170493 9.81974 0.176982 9.81974C0.183471 9.81974 0.188781 9.83037 0.188781 9.84335C0.188781 9.85633 0.19409 9.86695 0.20058 9.86695C0.207069 9.86695 0.212378 9.87758 0.212378 9.89056C0.212378 9.90354 0.217688 9.91416 0.224177 9.91416C0.230666 9.91416 0.235976 9.92479 0.235976 9.93777C0.235976 9.95075 0.241285 9.96137 0.247775 9.96137C0.254264 9.96137 0.259574 9.97083 0.259574 9.98237C0.259574 9.99393 0.270192 10.011 0.283171 10.0204C0.29615 10.0297 0.306769 10.0457 0.306769 10.0558C0.306769 10.0659 0.317388 10.0818 0.330366 10.0912C0.343345 10.1006 0.353964 10.1165 0.353964 10.1266C0.353964 10.1367 0.364583 10.1527 0.377561 10.162C0.39054 10.1714 0.401159 10.1861 0.401159 10.1948C0.401159 10.2034 0.433016 10.2418 0.471952 10.28C0.510888 10.3183 0.542745 10.3553 0.542745 10.3624C0.542745 10.3791 0.620687 10.4571 0.637395 10.4571C0.644462 10.4571 0.68151 10.4889 0.719727 10.5279C0.757943 10.5668 0.796301 10.5987 0.804961 10.5987C0.813621 10.5987 0.828358 10.6093 0.837715 10.6223C0.847071 10.6353 0.862999 10.6459 0.873111 10.6459C0.883222 10.6459 0.899151 10.6565 0.908507 10.6695C0.917864 10.6825 0.933792 10.6931 0.943904 10.6931C0.954015 10.6931 0.969944 10.7038 0.9793 10.7167C0.988657 10.7297 1.00575 10.7403 1.0173 10.7403C1.02884 10.7403 1.03829 10.7457 1.03829 10.7521C1.03829 10.7586 1.04891 10.7639 1.06189 10.7639C1.07487 10.7639 1.08549 10.7693 1.08549 10.7758C1.08549 10.7822 1.09611 10.7876 1.10909 10.7876C1.12207 10.7876 1.13268 10.7929 1.13268 10.7994C1.13268 10.8058 1.1433 10.8112 1.15628 10.8112C1.16926 10.8112 1.17988 10.8165 1.17988 10.823C1.17988 10.8295 1.1905 10.8348 1.20348 10.8348C1.21646 10.8348 1.22707 10.8401 1.22707 10.8466C1.22707 10.8531 1.243 10.8584 1.26247 10.8584C1.28194 10.8584 1.29787 10.8637 1.29787 10.8702C1.29787 10.8767 1.3138 10.882 1.33326 10.882C1.35273 10.882 1.36866 10.8873 1.36866 10.8938C1.36866 10.9003 1.38459 10.9056 1.40406 10.9056C1.42352 10.9056 1.43945 10.9109 1.43945 10.9174C1.43945 10.9239 1.46069 10.9292 1.48665 10.9292C1.51261 10.9292 1.53384 10.9345 1.53384 10.941C1.53384 10.9475 1.56039 10.9528 1.59284 10.9528C1.62528 10.9528 1.65183 10.9581 1.65183 10.9646C1.65183 10.9713 1.68723 10.9764 1.73442 10.9764C1.78162 10.9764 1.81701 10.9815 1.81701 10.9882C1.81701 10.996 3.2368 11 6.05278 11C8.86877 11 10.2886 10.996 10.2886 10.9882C10.2886 10.9815 10.3239 10.9764 10.3711 10.9764C10.4183 10.9764 10.4537 10.9713 10.4537 10.9646C10.4537 10.9581 10.475 10.9528 10.5009 10.9528C10.5269 10.9528 10.5481 10.9475 10.5481 10.941C10.5481 10.9345 10.5694 10.9292 10.5953 10.9292C10.6213 10.9292 10.6425 10.9239 10.6425 10.9174C10.6425 10.9109 10.6584 10.9056 10.6779 10.9056C10.6974 10.9056 10.7133 10.9003 10.7133 10.8938C10.7133 10.8873 10.7292 10.882 10.7487 10.882C10.7682 10.882 10.7841 10.8767 10.7841 10.8702C10.7841 10.8637 10.8 10.8584 10.8195 10.8584C10.839 10.8584 10.8549 10.8531 10.8549 10.8466C10.8549 10.8401 10.8655 10.8348 10.8785 10.8348C10.8915 10.8348 10.9021 10.8295 10.9021 10.823C10.9021 10.8165 10.9127 10.8112 10.9257 10.8112C10.9387 10.8112 10.9493 10.8058 10.9493 10.7994C10.9493 10.7929 10.9599 10.7876 10.9729 10.7876C10.9859 10.7876 10.9965 10.7822 10.9965 10.7758C10.9965 10.7693 11.0071 10.7639 11.0201 10.7639C11.0331 10.7639 11.0437 10.7586 11.0437 10.7521C11.0437 10.7457 11.0531 10.7403 11.0647 10.7403C11.0762 10.7403 11.0933 10.7297 11.1027 10.7167C11.112 10.7038 11.1291 10.6931 11.1407 10.6931C11.1522 10.6931 11.1617 10.6878 11.1617 10.6813C11.1617 10.6748 11.1701 10.6695 11.1805 10.6695C11.1909 10.6695 11.2143 10.6536 11.2325 10.6341C11.2506 10.6146 11.2717 10.5987 11.2792 10.5987C11.2868 10.5987 11.3188 10.5722 11.3504 10.5397C11.3821 10.5072 11.4137 10.4807 11.4207 10.4807C11.4374 10.4807 11.5628 10.3553 11.5628 10.3385C11.5628 10.3315 11.5894 10.2999 11.6218 10.2682C11.6543 10.2366 11.6808 10.2046 11.6808 10.197C11.6808 10.1895 11.6967 10.1684 11.7162 10.1502C11.7357 10.132 11.7516 10.1086 11.7516 10.0983C11.7516 10.0879 11.7569 10.0794 11.7634 10.0794C11.7699 10.0794 11.7752 10.0699 11.7752 10.0584C11.7752 10.0468 11.7858 10.0297 11.7988 10.0204C11.8118 10.011 11.8224 9.99393 11.8224 9.98237C11.8224 9.97083 11.8277 9.96137 11.8342 9.96137C11.8407 9.96137 11.846 9.95075 11.846 9.93777C11.846 9.92479 11.8513 9.91416 11.8578 9.91416C11.8643 9.91416 11.8696 9.90354 11.8696 9.89056C11.8696 9.87758 11.8749 9.86695 11.8814 9.86695C11.8879 9.86695 11.8932 9.85633 11.8932 9.84335C11.8932 9.83037 11.8985 9.81974 11.905 9.81974C11.9115 9.81974 11.9168 9.80912 11.9168 9.79614C11.9168 9.78315 11.9221 9.77253 11.9286 9.77253C11.9351 9.77253 11.9404 9.7566 11.9404 9.73712C11.9404 9.71765 11.9457 9.70172 11.9522 9.70172C11.9587 9.70172 11.964 9.68578 11.964 9.66631C11.964 9.64684 11.9693 9.6309 11.9758 9.6309C11.9823 9.6309 11.9876 9.61497 11.9876 9.59549C11.9876 9.57602 11.9929 9.56009 11.9994 9.56009C12.0059 9.56009 12.0112 9.53884 12.0112 9.51288C12.0112 9.48691 12.0165 9.46567 12.023 9.46567C12.0295 9.46567 12.0348 9.44442 12.0348 9.41846C12.0348 9.39249 12.0401 9.37124 12.0466 9.37124C12.0533 9.37124 12.0584 9.33584 12.0584 9.28863C12.0584 9.24142 12.0634 9.20601 12.0702 9.20601C12.0775 9.20601 12.082 9.13912 12.082 9.02897C12.082 8.91882 12.0775 8.85193 12.0702 8.85193C12.0632 8.85193 12.0584 8.80865 12.0584 8.74571C12.0584 8.68277 12.0536 8.63949 12.0466 8.63949C12.0401 8.63949 12.0348 8.61824 12.0348 8.59228C12.0348 8.56631 12.0295 8.54506 12.023 8.54506C12.0165 8.54506 12.0112 8.51851 12.0112 8.48605C12.0112 8.45359 12.0059 8.42704 11.9994 8.42704C11.9929 8.42704 11.9876 8.41111 11.9876 8.39163C11.9876 8.37216 11.9823 8.35622 11.9758 8.35622C11.9693 8.35622 11.964 8.3456 11.964 8.33262C11.964 8.31964 11.9587 8.30901 11.9522 8.30901C11.9457 8.30901 11.9404 8.29308 11.9404 8.27361C11.9404 8.25413 11.9351 8.2382 11.9286 8.2382C11.9221 8.2382 11.9168 8.22758 11.9168 8.21459C11.9168 8.20161 11.9115 8.19099 11.905 8.19099C11.8985 8.19099 11.8932 8.17505 11.8932 8.15558C11.8932 8.13611 11.8879 8.12017 11.8814 8.12017C11.8749 8.12017 11.8696 8.11072 11.8696 8.09918C11.8696 8.08762 11.859 8.07052 11.846 8.06116C11.833 8.0518 11.8224 8.0347 11.8224 8.02314C11.8224 8.0116 11.8171 8.00215 11.8106 8.00215C11.8041 8.00215 11.7988 7.99269 11.7988 7.98115C11.7988 7.96959 11.7882 7.95249 11.7752 7.94313C11.7622 7.93377 11.7516 7.91667 11.7516 7.90512C11.7516 7.89357 11.7463 7.88412 11.7398 7.88412C11.7333 7.88412 11.728 7.8735 11.728 7.86052C11.728 7.84753 11.7227 7.83691 11.7162 7.83691C11.7097 7.83691 11.7044 7.82746 11.7044 7.81591C11.7044 7.80436 11.6938 7.78726 11.6808 7.7779C11.6678 7.76854 11.6572 7.75144 11.6572 7.73988C11.6572 7.72834 11.6519 7.71888 11.6454 7.71888C11.6389 7.71888 11.6336 7.70826 11.6336 7.69528C11.6336 7.6823 11.6283 7.67167 11.6218 7.67167C11.6153 7.67167 11.61 7.66222 11.61 7.65068C11.61 7.63912 11.5994 7.62202 11.5864 7.61266C11.5734 7.6033 11.5628 7.5862 11.5628 7.57465C11.5628 7.5631 11.5575 7.55365 11.551 7.55365C11.5445 7.55365 11.5392 7.54303 11.5392 7.53004C11.5392 7.51706 11.5339 7.50644 11.5274 7.50644C11.5209 7.50644 11.5156 7.49698 11.5156 7.48544C11.5156 7.47389 11.505 7.45678 11.492 7.44743C11.479 7.43807 11.4684 7.42096 11.4684 7.40941C11.4684 7.39787 11.4631 7.38841 11.4566 7.38841C11.4501 7.38841 11.4448 7.37896 11.4448 7.36742C11.4448 7.35586 11.4342 7.33876 11.4212 7.3294C11.4083 7.32004 11.3976 7.30294 11.3976 7.29138C11.3976 7.27984 11.3923 7.27039 11.3858 7.27039C11.3793 7.27039 11.374 7.25976 11.374 7.24678C11.374 7.2338 11.3687 7.22318 11.3622 7.22318C11.3558 7.22318 11.3504 7.21372 11.3504 7.20218C11.3504 7.19062 11.3398 7.17352 11.3268 7.16416C11.3139 7.1548 11.3032 7.1377 11.3032 7.12615C11.3032 7.1146 11.2979 7.10515 11.2914 7.10515C11.285 7.10515 11.2796 7.09453 11.2796 7.08155C11.2796 7.06856 11.2743 7.05794 11.2679 7.05794C11.2614 7.05794 11.2561 7.04849 11.2561 7.03694C11.2561 7.02539 11.2454 7.00829 11.2325 6.99893C11.2195 6.98957 11.2089 6.97247 11.2089 6.96091C11.2089 6.94937 11.2035 6.93991 11.1971 6.93991C11.1906 6.93991 11.1853 6.92929 11.1853 6.91631C11.1853 6.90333 11.1799 6.8927 11.1735 6.8927C11.167 6.8927 11.1617 6.88325 11.1617 6.87171C11.1617 6.86015 11.151 6.84305 11.1381 6.83369C11.1251 6.82433 11.1145 6.80723 11.1145 6.79568C11.1145 6.78413 11.1092 6.77468 11.1027 6.77468C11.0962 6.77468 11.0909 6.76522 11.0909 6.75368C11.0909 6.74213 11.0802 6.72502 11.0673 6.71567C11.0543 6.70631 11.0437 6.6892 11.0437 6.67765C11.0437 6.66611 11.0384 6.65665 11.0319 6.65665C11.0254 6.65665 11.0201 6.64603 11.0201 6.63305C11.0201 6.62006 11.0148 6.60944 11.0083 6.60944C11.0018 6.60944 10.9965 6.59999 10.9965 6.58845C10.9965 6.57689 10.9859 6.55979 10.9729 6.55043C10.9599 6.54107 10.9493 6.52397 10.9493 6.51241C10.9493 6.50087 10.944 6.49142 10.9375 6.49142C10.931 6.49142 10.9257 6.48079 10.9257 6.46781C10.9257 6.45483 10.9204 6.44421 10.9139 6.44421C10.9074 6.44421 10.9021 6.43475 10.9021 6.42321C10.9021 6.41165 10.8915 6.39455 10.8785 6.38519C10.8655 6.37583 10.8549 6.35873 10.8549 6.34718C10.8549 6.33563 10.8496 6.32618 10.8431 6.32618C10.8366 6.32618 10.8313 6.31556 10.8313 6.30258C10.8313 6.28959 10.826 6.27897 10.8195 6.27897C10.813 6.27897 10.8077 6.26952 10.8077 6.25797C10.8077 6.24642 10.7971 6.22932 10.7841 6.21996C10.7711 6.2106 10.7605 6.1935 10.7605 6.18194C10.7605 6.1704 10.7552 6.16094 10.7487 6.16094C10.7422 6.16094 10.7369 6.15149 10.7369 6.13995C10.7369 6.12839 10.7263 6.11129 10.7133 6.10193C10.7003 6.09257 10.6897 6.07547 10.6897 6.06392C10.6897 6.05237 10.6844 6.04292 10.6779 6.04292C10.6714 6.04292 10.6661 6.0323 10.6661 6.01931C10.6661 6.00633 10.6608 5.99571 10.6543 5.99571C10.6478 5.99571 10.6425 5.98625 10.6425 5.97471C10.6425 5.96316 10.6319 5.94605 10.6189 5.9367C10.6059 5.92734 10.5953 5.91023 10.5953 5.89868C10.5953 5.88714 10.59 5.87768 10.5835 5.87768C10.577 5.87768 10.5717 5.86706 10.5717 5.85408C10.5717 5.84109 10.5664 5.83047 10.5599 5.83047C10.5534 5.83047 10.5481 5.82102 10.5481 5.80948C10.5481 5.79792 10.5375 5.78082 10.5245 5.77146C10.5115 5.7621 10.5009 5.745 10.5009 5.73344C10.5009 5.7219 10.4956 5.71245 10.4891 5.71245C10.4826 5.71245 10.4773 5.70182 10.4773 5.68884C10.4773 5.67586 10.472 5.66524 10.4655 5.66524C10.459 5.66524 10.4537 5.65578 10.4537 5.64424C10.4537 5.63268 10.4431 5.61558 10.4301 5.60622C10.4172 5.59686 10.4065 5.57976 10.4065 5.56821C10.4065 5.55666 10.4012 5.54721 10.3947 5.54721C10.3883 5.54721 10.3829 5.53776 10.3829 5.52621C10.3829 5.51466 10.3723 5.49756 10.3593 5.4882C10.3464 5.47884 10.3357 5.46174 10.3357 5.45018C10.3357 5.43864 10.3304 5.42918 10.3239 5.42918C10.3175 5.42918 10.3121 5.41856 10.3121 5.40558C10.3121 5.3926 10.3068 5.38197 10.3003 5.38197C10.2939 5.38197 10.2886 5.37252 10.2886 5.36098C10.2886 5.34942 10.2779 5.33232 10.265 5.32296C10.252 5.3136 10.2414 5.2965 10.2414 5.28495C10.2414 5.2734 10.236 5.26395 10.2296 5.26395C10.2231 5.26395 10.2178 5.25333 10.2178 5.24034C10.2178 5.22736 10.2124 5.21674 10.206 5.21674C10.1995 5.21674 10.1942 5.20728 10.1942 5.19574C10.1942 5.18419 10.1835 5.16708 10.1706 5.15773C10.1576 5.14837 10.147 5.13126 10.147 5.11971C10.147 5.10817 10.1417 5.09871 10.1352 5.09871C10.1287 5.09871 10.1234 5.08809 10.1234 5.07511C10.1234 5.06212 10.1181 5.0515 10.1116 5.0515C10.1051 5.0515 10.0998 5.04205 10.0998 5.03051C10.0998 5.01895 10.0892 5.00185 10.0762 4.99249C10.0632 4.98313 10.0526 4.96603 10.0526 4.95447C10.0526 4.94293 10.0473 4.93348 10.0408 4.93348C10.0343 4.93348 10.029 4.92402 10.029 4.91248C10.029 4.90093 10.0184 4.88382 10.0054 4.87446C9.9924 4.8651 9.98178 4.848 9.98178 4.83645C9.98178 4.8249 9.97647 4.81545 9.96998 4.81545C9.96349 4.81545 9.95818 4.80483 9.95818 4.79185C9.95818 4.77886 9.95287 4.76824 9.94639 4.76824C9.9399 4.76824 9.93459 4.75879 9.93459 4.74724C9.93459 4.73569 9.92397 4.71859 9.91099 4.70923C9.89801 4.69987 9.88739 4.68277 9.88739 4.67121C9.88739 4.65967 9.88208 4.65021 9.87559 4.65021C9.8691 4.65021 9.86379 4.63959 9.86379 4.62661C9.86379 4.61363 9.85848 4.603 9.85199 4.603C9.84551 4.603 9.8402 4.59355 9.8402 4.58201C9.8402 4.57045 9.82958 4.55335 9.8166 4.54399C9.80362 4.53463 9.793 4.51753 9.793 4.50598C9.793 4.49443 9.78769 4.48498 9.7812 4.48498C9.77471 4.48498 9.7694 4.47436 9.7694 4.46137C9.7694 4.44839 9.76409 4.43777 9.7576 4.43777C9.75112 4.43777 9.74581 4.42831 9.74581 4.41677C9.74581 4.40522 9.73519 4.38811 9.72221 4.37876C9.70923 4.3694 9.69861 4.35229 9.69861 4.34074C9.69861 4.3292 9.6933 4.31974 9.68681 4.31974C9.68032 4.31974 9.67501 4.31029 9.67501 4.29875C9.67501 4.28719 9.66439 4.27009 9.65142 4.26073C9.63844 4.25137 9.62782 4.23427 9.62782 4.22271C9.62782 4.21117 9.62251 4.20172 9.61602 4.20172C9.60953 4.20172 9.60422 4.19109 9.60422 4.17811C9.60422 4.16513 9.59891 4.15451 9.59242 4.15451C9.58593 4.15451 9.58062 4.14505 9.58062 4.13351C9.58062 4.12196 9.57 4.10485 9.55702 4.09549C9.54405 4.08613 9.53343 4.06903 9.53343 4.05748C9.53343 4.04593 9.52812 4.03648 9.52163 4.03648C9.51514 4.03648 9.50983 4.02586 9.50983 4.01288C9.50983 3.99989 9.50452 3.98927 9.49803 3.98927C9.49154 3.98927 9.48623 3.97982 9.48623 3.96827C9.48623 3.95672 9.47561 3.93962 9.46263 3.93026C9.44966 3.9209 9.43904 3.9038 9.43904 3.89224C9.43904 3.8807 9.43373 3.87124 9.42724 3.87124C9.42075 3.87124 9.41544 3.86179 9.41544 3.85025C9.41544 3.83869 9.40482 3.82159 9.39184 3.81223C9.37886 3.80287 9.36824 3.78577 9.36824 3.77422C9.36824 3.76267 9.36293 3.75322 9.35645 3.75322C9.34996 3.75322 9.34465 3.7426 9.34465 3.72961C9.34465 3.71663 9.33934 3.70601 9.33285 3.70601C9.32636 3.70601 9.32105 3.69655 9.32105 3.68501C9.32105 3.67346 9.31043 3.65636 9.29745 3.647C9.28447 3.63764 9.27385 3.62053 9.27385 3.60898C9.27385 3.59744 9.26854 3.58798 9.26206 3.58798C9.25557 3.58798 9.25026 3.57736 9.25026 3.56438C9.25026 3.55139 9.24495 3.54077 9.23846 3.54077C9.23197 3.54077 9.22666 3.53132 9.22666 3.51978C9.22666 3.50822 9.21604 3.49112 9.20306 3.48176C9.19008 3.4724 9.17946 3.4553 9.17946 3.44374C9.17946 3.4322 9.17415 3.42275 9.16766 3.42275C9.16118 3.42275 9.15587 3.41212 9.15587 3.39914C9.15587 3.38616 9.15056 3.37554 9.14407 3.37554C9.13758 3.37554 9.13227 3.36608 9.13227 3.35454C9.13227 3.34299 9.12165 3.32588 9.10867 3.31652C9.09569 3.30716 9.08507 3.29006 9.08507 3.27851C9.08507 3.26696 9.07976 3.25751 9.07327 3.25751C9.06678 3.25751 9.06148 3.24806 9.06148 3.23651C9.06148 3.22496 9.05086 3.20786 9.03788 3.1985C9.0249 3.18914 9.01428 3.17204 9.01428 3.16048C9.01428 3.14894 9.00897 3.13949 9.00248 3.13949C8.99599 3.13949 8.99068 3.12886 8.99068 3.11588C8.99068 3.1029 8.98537 3.09227 8.97888 3.09227C8.97239 3.09227 8.96709 3.08282 8.96709 3.07128C8.96709 3.05972 8.95647 3.04262 8.94349 3.03326C8.93051 3.0239 8.91989 3.0068 8.91989 2.99525C8.91989 2.9837 8.91458 2.97425 8.90809 2.97425C8.9016 2.97425 8.89629 2.96363 8.89629 2.95064C8.89629 2.93766 8.89098 2.92704 8.88449 2.92704C8.878 2.92704 8.87269 2.91758 8.87269 2.90604C8.87269 2.89449 8.86208 2.87739 8.8491 2.86803C8.83612 2.85867 8.8255 2.84156 8.8255 2.83001C8.8255 2.81847 8.82019 2.80901 8.8137 2.80901C8.80721 2.80901 8.8019 2.79839 8.8019 2.78541C8.8019 2.77242 8.79659 2.7618 8.7901 2.7618C8.78361 2.7618 8.7783 2.75235 8.7783 2.74081C8.7783 2.72925 8.76769 2.71215 8.75471 2.70279C8.74173 2.69343 8.73111 2.67633 8.73111 2.66477C8.73111 2.65323 8.7258 2.64378 8.71931 2.64378C8.71282 2.64378 8.70751 2.63432 8.70751 2.62278C8.70751 2.61123 8.69689 2.59412 8.68391 2.58476C8.67094 2.5754 8.66032 2.5583 8.66032 2.54675C8.66032 2.5352 8.65501 2.52575 8.64852 2.52575C8.64203 2.52575 8.63672 2.51513 8.63672 2.50215C8.63672 2.48916 8.63141 2.47854 8.62492 2.47854C8.61843 2.47854 8.61312 2.46909 8.61312 2.45754C8.61312 2.44599 8.6025 2.42889 8.58952 2.41953C8.57654 2.41017 8.56593 2.39307 8.56593 2.38151C8.56593 2.36997 8.56062 2.36052 8.55413 2.36052C8.54764 2.36052 8.54233 2.34989 8.54233 2.33691C8.54233 2.32393 8.53702 2.3133 8.53053 2.3133C8.52404 2.3133 8.51873 2.30385 8.51873 2.29231C8.51873 2.28075 8.50811 2.26365 8.49513 2.25429C8.48215 2.24493 8.47154 2.22783 8.47154 2.21628C8.47154 2.20473 8.46623 2.19528 8.45974 2.19528C8.45325 2.19528 8.44794 2.18466 8.44794 2.17167C8.44794 2.15869 8.44263 2.14807 8.43614 2.14807C8.42965 2.14807 8.42434 2.13861 8.42434 2.12707C8.42434 2.11552 8.41372 2.09842 8.40074 2.08906C8.38776 2.0797 8.37715 2.06259 8.37715 2.05104C8.37715 2.0395 8.37184 2.03004 8.36535 2.03004C8.35886 2.03004 8.35355 2.02059 8.35355 2.00905C8.35355 1.99749 8.34293 1.98039 8.32995 1.97103C8.31697 1.96167 8.30635 1.94457 8.30635 1.93301C8.30635 1.92147 8.30104 1.91202 8.29455 1.91202C8.28806 1.91202 8.28275 1.90139 8.28275 1.88841C8.28275 1.87543 8.27745 1.86481 8.27096 1.86481C8.26447 1.86481 8.25916 1.85535 8.25916 1.84381C8.25916 1.83226 8.24854 1.81515 8.23556 1.80579C8.22258 1.79643 8.21196 1.77933 8.21196 1.76778C8.21196 1.75624 8.20665 1.74678 8.20016 1.74678C8.19367 1.74678 8.18836 1.73616 8.18836 1.72318C8.18836 1.71019 8.18306 1.69957 8.17657 1.69957C8.17008 1.69957 8.16477 1.69012 8.16477 1.67857C8.16477 1.66702 8.15415 1.64992 8.14117 1.64056C8.12819 1.6312 8.11757 1.6141 8.11757 1.60254C8.11757 1.591 8.11226 1.58155 8.10577 1.58155C8.09928 1.58155 8.09397 1.57092 8.09397 1.55794C8.09397 1.54496 8.08866 1.53433 8.08218 1.53433C8.07569 1.53433 8.07038 1.52488 8.07038 1.51334C8.07038 1.50178 8.05976 1.48468 8.04678 1.47532C8.0338 1.46596 8.02318 1.44886 8.02318 1.43731C8.02318 1.42576 8.01787 1.41631 8.01138 1.41631C8.00489 1.41631 7.99958 1.40686 7.99958 1.39531C7.99958 1.38376 7.98896 1.36666 7.97599 1.3573C7.96301 1.34794 7.95239 1.33083 7.95239 1.31928C7.95239 1.30774 7.94708 1.29828 7.94059 1.29828C7.9341 1.29828 7.92879 1.28766 7.92879 1.27468C7.92879 1.2617 7.92348 1.25107 7.91699 1.25107C7.9105 1.25107 7.90519 1.24162 7.90519 1.23008C7.90519 1.21852 7.89457 1.20142 7.8816 1.19206C7.86862 1.1827 7.858 1.1656 7.858 1.15404C7.858 1.1425 7.85269 1.13305 7.8462 1.13305C7.83971 1.13305 7.8344 1.12242 7.8344 1.10944C7.8344 1.09646 7.82909 1.08584 7.8226 1.08584C7.81611 1.08584 7.8108 1.07638 7.8108 1.06484C7.8108 1.05329 7.80018 1.03618 7.78721 1.02682C7.77423 1.01746 7.76361 1.00153 7.76361 0.991416C7.76361 0.981302 7.75299 0.965368 7.74001 0.956009C7.72703 0.946649 7.71641 0.930716 7.71641 0.920601C7.71641 0.910486 7.70579 0.894553 7.69282 0.885193C7.67984 0.875834 7.66922 0.8599 7.66922 0.849785C7.66922 0.839671 7.6586 0.823737 7.64562 0.814378C7.63264 0.805018 7.62202 0.790525 7.62202 0.782169C7.62202 0.762317 7.28471 0.424893 7.26486 0.424893C7.25651 0.424893 7.24202 0.41427 7.23266 0.401288C7.22331 0.388305 7.20738 0.377682 7.19727 0.377682C7.18715 0.377682 7.17123 0.36706 7.16187 0.354077C7.15251 0.341094 7.13658 0.330472 7.12647 0.330472C7.11636 0.330472 7.10043 0.31985 7.09108 0.306867C7.08172 0.293884 7.06579 0.283262 7.05568 0.283262C7.04557 0.283262 7.02964 0.272639 7.02028 0.259657C7.01093 0.246674 6.99383 0.236052 6.98228 0.236052C6.97074 0.236052 6.96129 0.23074 6.96129 0.224249C6.96129 0.217758 6.95067 0.212446 6.93769 0.212446C6.92471 0.212446 6.91409 0.207135 6.91409 0.200644C6.91409 0.194152 6.89817 0.188841 6.8787 0.188841C6.85923 0.188841 6.8433 0.18353 6.8433 0.177039C6.8433 0.170547 6.83268 0.165236 6.8197 0.165236C6.80673 0.165236 6.79611 0.159925 6.79611 0.153433C6.79611 0.146942 6.78549 0.141631 6.77251 0.141631C6.75953 0.141631 6.74891 0.13632 6.74891 0.129828C6.74891 0.123337 6.73298 0.118026 6.71352 0.118026C6.69405 0.118026 6.67812 0.112715 6.67812 0.106223C6.67812 0.0997318 6.66219 0.0944206 6.64272 0.0944206C6.62325 0.0944206 6.60733 0.0891094 6.60733 0.082618C6.60733 0.0761266 6.58609 0.0708155 6.56013 0.0708155C6.53417 0.0708155 6.51294 0.0655043 6.51294 0.0590129C6.51294 0.0525215 6.48639 0.0472103 6.45394 0.0472103C6.42149 0.0472103 6.39495 0.0418991 6.39495 0.0354077C6.39495 0.0285268 6.35562 0.0236052 6.30056 0.0236052C6.24549 0.0236052 6.20617 0.0186835 6.20617 0.0118026C6.20617 0.00446137 6.1393 0 6.02918 0C5.91907 0 5.8522 0.00446137 5.8522 0.0118026ZM6.56013 2.41953C6.56013 2.42602 6.58668 2.43133 6.61912 2.43133C6.65157 2.43133 6.67812 2.43664 6.67812 2.44313C6.67812 2.44962 6.68618 2.45494 6.69604 2.45494C6.71937 2.45494 6.8669 2.60251 6.8669 2.62585C6.8669 2.63572 6.87221 2.64378 6.8787 2.64378C6.88519 2.64378 6.8905 2.65971 6.8905 2.67918C6.8905 2.69866 6.89581 2.71459 6.9023 2.71459C6.90955 2.71459 6.91409 2.77361 6.91409 2.86803C6.91409 2.96245 6.90955 3.02146 6.9023 3.02146C6.8953 3.02146 6.8905 3.06474 6.8905 3.12768C6.8905 3.19063 6.88569 3.23391 6.8787 3.23391C6.8717 3.23391 6.8669 3.27719 6.8669 3.34013C6.8669 3.40307 6.8621 3.44635 6.8551 3.44635C6.84822 3.44635 6.8433 3.48569 6.8433 3.54077C6.8433 3.59586 6.83838 3.63519 6.8315 3.63519C6.82451 3.63519 6.8197 3.67847 6.8197 3.74142C6.8197 3.80436 6.8149 3.84764 6.80791 3.84764C6.80091 3.84764 6.79611 3.89092 6.79611 3.95386C6.79611 4.01681 6.7913 4.06009 6.78431 4.06009C6.77731 4.06009 6.77251 4.10337 6.77251 4.16631C6.77251 4.22925 6.76771 4.27253 6.76071 4.27253C6.75383 4.27253 6.74891 4.31187 6.74891 4.36695C6.74891 4.42204 6.74399 4.46137 6.73711 4.46137C6.73012 4.46137 6.72531 4.50465 6.72531 4.5676C6.72531 4.63054 6.72051 4.67382 6.71352 4.67382C6.70652 4.67382 6.70172 4.7171 6.70172 4.78004C6.70172 4.84299 6.69691 4.88627 6.68992 4.88627C6.68292 4.88627 6.67812 4.92955 6.67812 4.99249C6.67812 5.05543 6.67332 5.09871 6.66632 5.09871C6.65944 5.09871 6.65452 5.13805 6.65452 5.19313C6.65452 5.24822 6.6496 5.28755 6.64272 5.28755C6.63573 5.28755 6.63092 5.33083 6.63092 5.39378C6.63092 5.45672 6.62612 5.5 6.61912 5.5C6.61213 5.5 6.60733 5.54328 6.60733 5.60622C6.60733 5.66917 6.60252 5.71245 6.59553 5.71245C6.58853 5.71245 6.58373 5.75573 6.58373 5.81867C6.58373 5.88161 6.57893 5.92489 6.57193 5.92489C6.56505 5.92489 6.56013 5.96423 6.56013 6.01931C6.56013 6.0744 6.55521 6.11373 6.54833 6.11373C6.54134 6.11373 6.53653 6.15701 6.53653 6.21996C6.53653 6.2829 6.53173 6.32618 6.52473 6.32618C6.51774 6.32618 6.51294 6.36946 6.51294 6.4324C6.51294 6.49535 6.50813 6.53863 6.50114 6.53863C6.49458 6.53863 6.48934 6.5701 6.48934 6.60944C6.48934 6.64878 6.4841 6.68026 6.47754 6.68026C6.47105 6.68026 6.46574 6.7015 6.46574 6.72747C6.46574 6.75343 6.46043 6.77468 6.45394 6.77468C6.44745 6.77468 6.44214 6.7853 6.44214 6.79828C6.44214 6.81127 6.43683 6.82189 6.43034 6.82189C6.42385 6.82189 6.41855 6.83 6.41855 6.8399C6.41855 6.86333 6.31839 6.96352 6.29496 6.96352C6.28507 6.96352 6.27696 6.96883 6.27696 6.97532C6.27696 6.98181 6.26634 6.98712 6.25336 6.98712C6.24038 6.98712 6.22976 6.99244 6.22976 6.99893C6.22976 7.00542 6.21915 7.01073 6.20617 7.01073C6.19319 7.01073 6.18257 7.01604 6.18257 7.02253C6.18257 7.02974 6.1275 7.03434 6.04098 7.03434C5.95446 7.03434 5.8994 7.02974 5.8994 7.02253C5.8994 7.01604 5.88878 7.01073 5.8758 7.01073C5.86282 7.01073 5.8522 7.00542 5.8522 6.99893C5.8522 6.99244 5.84158 6.98712 5.82861 6.98712C5.81563 6.98712 5.80501 6.98181 5.80501 6.97532C5.80501 6.96883 5.79687 6.96352 5.78692 6.96352C5.76483 6.96352 5.68702 6.88771 5.68702 6.8662C5.68702 6.85767 5.6764 6.84305 5.66342 6.83369C5.65044 6.82433 5.63982 6.80723 5.63982 6.79568C5.63982 6.78413 5.63452 6.77468 5.62803 6.77468C5.62154 6.77468 5.61623 6.75343 5.61623 6.72747C5.61623 6.7015 5.61092 6.68026 5.60443 6.68026C5.59787 6.68026 5.59263 6.64878 5.59263 6.60944C5.59263 6.5701 5.58739 6.53863 5.58083 6.53863C5.57383 6.53863 5.56903 6.49535 5.56903 6.4324C5.56903 6.36946 5.56423 6.32618 5.55723 6.32618C5.55024 6.32618 5.54543 6.2829 5.54543 6.21996C5.54543 6.15701 5.54063 6.11373 5.53364 6.11373C5.52676 6.11373 5.52184 6.0744 5.52184 6.01931C5.52184 5.96423 5.51692 5.92489 5.51004 5.92489C5.50304 5.92489 5.49824 5.88161 5.49824 5.81867C5.49824 5.75573 5.49344 5.71245 5.48644 5.71245C5.47944 5.71245 5.47464 5.66917 5.47464 5.60622C5.47464 5.54328 5.46984 5.5 5.46284 5.5C5.45585 5.5 5.45104 5.45672 5.45104 5.39378C5.45104 5.33083 5.44624 5.28755 5.43925 5.28755C5.43237 5.28755 5.42745 5.24822 5.42745 5.19313C5.42745 5.13805 5.42253 5.09871 5.41565 5.09871C5.40865 5.09871 5.40385 5.05543 5.40385 4.99249C5.40385 4.92955 5.39905 4.88627 5.39205 4.88627C5.38505 4.88627 5.38025 4.84299 5.38025 4.78004C5.38025 4.7171 5.37545 4.67382 5.36845 4.67382C5.36146 4.67382 5.35665 4.63054 5.35665 4.5676C5.35665 4.50465 5.35185 4.46137 5.34485 4.46137C5.33798 4.46137 5.33306 4.42204 5.33306 4.36695C5.33306 4.31187 5.32814 4.27253 5.32126 4.27253C5.31426 4.27253 5.30946 4.22925 5.30946 4.16631C5.30946 4.10337 5.30466 4.06009 5.29766 4.06009C5.29066 4.06009 5.28586 4.01681 5.28586 3.95386C5.28586 3.89092 5.28106 3.84764 5.27406 3.84764C5.26707 3.84764 5.26226 3.80436 5.26226 3.74142C5.26226 3.67847 5.25746 3.63519 5.25046 3.63519C5.24359 3.63519 5.23867 3.59586 5.23867 3.54077C5.23867 3.48569 5.23375 3.44635 5.22687 3.44635C5.21987 3.44635 5.21507 3.40307 5.21507 3.34013C5.21507 3.27719 5.21027 3.23391 5.20327 3.23391C5.19627 3.23391 5.19147 3.19063 5.19147 3.12768C5.19147 3.06474 5.18667 3.02146 5.17967 3.02146C5.17242 3.02146 5.16787 2.96245 5.16787 2.86803C5.16787 2.77361 5.17242 2.71459 5.17967 2.71459C5.18616 2.71459 5.19147 2.69866 5.19147 2.67918C5.19147 2.65971 5.19678 2.64378 5.20327 2.64378C5.20976 2.64378 5.21507 2.63432 5.21507 2.62278C5.21507 2.61123 5.22569 2.59412 5.23867 2.58476C5.25164 2.5754 5.26226 2.56058 5.26226 2.55181C5.26226 2.53126 5.29137 2.50215 5.31191 2.50215C5.32068 2.50215 5.3355 2.49152 5.34485 2.47854C5.35421 2.46556 5.37131 2.45494 5.38286 2.45494C5.3944 2.45494 5.40385 2.44962 5.40385 2.44313C5.40385 2.43664 5.42509 2.43133 5.45104 2.43133C5.477 2.43133 5.49824 2.42602 5.49824 2.41953C5.49824 2.41183 5.68309 2.40773 6.02918 2.40773C6.37528 2.40773 6.56013 2.41183 6.56013 2.41953ZM6.18257 7.70708C6.18257 7.71357 6.20912 7.71888 6.24156 7.71888C6.27401 7.71888 6.30056 7.7242 6.30056 7.73069C6.30056 7.73718 6.31649 7.74249 6.33595 7.74249C6.35542 7.74249 6.37135 7.7478 6.37135 7.75429C6.37135 7.76078 6.38197 7.76609 6.39495 7.76609C6.40793 7.76609 6.41855 7.77141 6.41855 7.7779C6.41855 7.78439 6.42916 7.7897 6.44214 7.7897C6.45512 7.7897 6.46574 7.79501 6.46574 7.8015C6.46574 7.80799 6.47519 7.81331 6.48673 7.81331C6.49828 7.81331 6.51538 7.82393 6.52473 7.83691C6.53409 7.84989 6.54862 7.86052 6.55703 7.86052C6.57849 7.86052 6.74891 8.03331 6.74891 8.05507C6.74891 8.06491 6.75422 8.07296 6.76071 8.07296C6.7672 8.07296 6.77251 8.08358 6.77251 8.09657C6.77251 8.10955 6.77782 8.12017 6.78431 8.12017C6.7908 8.12017 6.79611 8.12963 6.79611 8.14117C6.79611 8.15272 6.80673 8.16983 6.8197 8.17918C6.83614 8.19103 6.8433 8.20974 6.8433 8.24081C6.8433 8.26533 6.84861 8.28541 6.8551 8.28541C6.86159 8.28541 6.8669 8.30134 6.8669 8.32082C6.8669 8.34029 6.87221 8.35622 6.8787 8.35622C6.88604 8.35622 6.8905 8.42311 6.8905 8.53326C6.8905 8.64342 6.88604 8.7103 6.8787 8.7103C6.87221 8.7103 6.8669 8.73155 6.8669 8.75751C6.8669 8.78348 6.86159 8.80472 6.8551 8.80472C6.84861 8.80472 6.8433 8.82065 6.8433 8.84013C6.8433 8.8596 6.83799 8.87554 6.8315 8.87554C6.82501 8.87554 6.8197 8.88616 6.8197 8.89914C6.8197 8.91212 6.81439 8.92275 6.80791 8.92275C6.80142 8.92275 6.79611 8.93337 6.79611 8.94635C6.79611 8.95934 6.7908 8.96996 6.78431 8.96996C6.77782 8.96996 6.77251 8.97834 6.77251 8.98858C6.77251 8.99884 6.75127 9.02762 6.72531 9.05258C6.69936 9.07753 6.67812 9.10405 6.67812 9.11151C6.67812 9.12903 6.64836 9.1588 6.63084 9.1588C6.62338 9.1588 6.59687 9.18004 6.57193 9.20601C6.54699 9.23197 6.51821 9.25322 6.50796 9.25322C6.49772 9.25322 6.48934 9.25853 6.48934 9.26502C6.48934 9.27151 6.47872 9.27682 6.46574 9.27682C6.45276 9.27682 6.44214 9.28214 6.44214 9.28863C6.44214 9.29512 6.43152 9.30043 6.41855 9.30043C6.40557 9.30043 6.39495 9.30574 6.39495 9.31223C6.39495 9.31872 6.37902 9.32403 6.35955 9.32403C6.34008 9.32403 6.32415 9.32935 6.32415 9.33584C6.32415 9.34233 6.30823 9.34764 6.28876 9.34764C6.26929 9.34764 6.25336 9.35295 6.25336 9.35944C6.25336 9.36688 6.1747 9.37124 6.04098 9.37124C5.90727 9.37124 5.82861 9.36688 5.82861 9.35944C5.82861 9.35295 5.81268 9.34764 5.79321 9.34764C5.77374 9.34764 5.75781 9.34233 5.75781 9.33584C5.75781 9.32935 5.74188 9.32403 5.72242 9.32403C5.70295 9.32403 5.68702 9.31872 5.68702 9.31223C5.68702 9.30574 5.6764 9.30043 5.66342 9.30043C5.65044 9.30043 5.63982 9.29512 5.63982 9.28863C5.63982 9.28214 5.62921 9.27682 5.61623 9.27682C5.60325 9.27682 5.59263 9.27151 5.59263 9.26502C5.59263 9.25853 5.58415 9.25322 5.57376 9.25322C5.56339 9.25322 5.54002 9.23729 5.52184 9.21781C5.50365 9.19834 5.4827 9.1824 5.47527 9.1824C5.45788 9.1824 5.40385 9.12854 5.40385 9.1112C5.40385 9.1039 5.38261 9.07753 5.35665 9.05258C5.3307 9.02762 5.30946 8.99884 5.30946 8.98858C5.30946 8.97834 5.30415 8.96996 5.29766 8.96996C5.29117 8.96996 5.28586 8.95934 5.28586 8.94635C5.28586 8.93337 5.28055 8.92275 5.27406 8.92275C5.26757 8.92275 5.26226 8.91212 5.26226 8.89914C5.26226 8.88616 5.25695 8.87554 5.25046 8.87554C5.24397 8.87554 5.23867 8.8596 5.23867 8.84013C5.23867 8.82065 5.23336 8.80472 5.22687 8.80472C5.22038 8.80472 5.21507 8.78348 5.21507 8.75751C5.21507 8.73155 5.20976 8.7103 5.20327 8.7103C5.19593 8.7103 5.19147 8.64342 5.19147 8.53326C5.19147 8.42311 5.19593 8.35622 5.20327 8.35622C5.20976 8.35622 5.21507 8.34029 5.21507 8.32082C5.21507 8.30134 5.22038 8.28541 5.22687 8.28541C5.23336 8.28541 5.23867 8.26947 5.23867 8.25C5.23867 8.23053 5.24397 8.21459 5.25046 8.21459C5.25695 8.21459 5.26226 8.20397 5.26226 8.19099C5.26226 8.178 5.26757 8.16738 5.27406 8.16738C5.28055 8.16738 5.28586 8.15676 5.28586 8.14378C5.28586 8.13079 5.29117 8.12017 5.29766 8.12017C5.30415 8.12017 5.30946 8.10955 5.30946 8.09657C5.30946 8.08358 5.31477 8.07296 5.32126 8.07296C5.32775 8.07296 5.33306 8.06491 5.33306 8.05507C5.33306 8.03331 5.50348 7.86052 5.52494 7.86052C5.53335 7.86052 5.54788 7.84989 5.55723 7.83691C5.56659 7.82393 5.58369 7.81331 5.59524 7.81331C5.60678 7.81331 5.61623 7.80799 5.61623 7.8015C5.61623 7.79501 5.62685 7.7897 5.63982 7.7897C5.6528 7.7897 5.66342 7.78439 5.66342 7.7779C5.66342 7.77141 5.67404 7.76609 5.68702 7.76609C5.7 7.76609 5.71062 7.76078 5.71062 7.75429C5.71062 7.7478 5.73186 7.74249 5.75781 7.74249C5.78377 7.74249 5.80501 7.73718 5.80501 7.73069C5.80501 7.7242 5.82625 7.71888 5.8522 7.71888C5.87816 7.71888 5.8994 7.71357 5.8994 7.70708C5.8994 7.69987 5.95446 7.69528 6.04098 7.69528C6.1275 7.69528 6.18257 7.69987 6.18257 7.70708Z" fill="black"/>
</svg>
