<svg width="50" height="54" viewBox="0 0 50 54" fill="none" xmlns="http://www.w3.org/2000/svg">
<path d="M13.8727 34.1535H0.522924L5.55606 16.331H0V13.7468H10.0837L5.06473 31.565H13.8727V34.1535Z" fill="#061D54"/>
<path d="M13.8661 30.3998H10.5117V13.7911H17.2193C17.8194 13.789 18.4168 13.8686 18.9951 14.0276C19.5538 14.1819 20.09 14.4077 20.59 14.6992C21.0843 14.9895 21.5399 15.3399 21.9463 15.7424C22.3537 16.1458 22.707 16.5995 22.9976 17.0923C23.2915 17.5914 23.5193 18.1261 23.6752 18.683C23.9869 19.804 23.9948 20.9866 23.6981 22.1116C23.556 22.6477 23.3482 23.1645 23.0793 23.6505C22.8098 24.1383 22.478 24.5898 22.0923 24.9939C21.7041 25.4029 21.2648 25.7611 20.785 26.0597L24.7069 34.3598V37.0411L20.87 30.3998L19.1149 27.1126L13.8661 27.0759V30.3998ZM13.8661 17.1171V23.766H17.2193C17.665 23.7687 18.1065 23.6797 18.5157 23.5047C19.3202 23.167 19.9598 22.5311 20.298 21.7326C20.4713 21.3237 20.5606 20.8846 20.5606 20.441C20.5606 19.9975 20.4713 19.5584 20.298 19.1495C19.9604 18.3516 19.3227 17.7152 18.5201 17.3752C18.1108 17.2005 17.6693 17.1119 17.2237 17.115L13.8661 17.1171Z" fill="#061D54"/>
<path d="M28.5008 44.4566H24.9134L18.452 33.5216V44.4566H15.0977V27.8468H18.6851L25.1476 38.7925V27.0217H28.5008V44.4566Z" fill="#061D54"/>
<path d="M31.3732 -4.14185e-05L19.9033 5.52563L20.8824 7.52255L32.3523 1.99687L31.3732 -4.14185e-05Z" fill="#061D54"/>
<path d="M29.251 3.49082L23.9805 6.02991L26.2782 10.7162L31.5487 8.17715L29.251 3.49082Z" fill="#061D54"/>
<path d="M35.6858 6.18435L22.1426 12.7089L22.8402 14.1318L36.3835 7.60725L35.6858 6.18435Z" fill="#061D54"/>
<path d="M23.877 13.6323L34.6437 35.5919L46.1143 30.0661L35.3475 8.10754L23.877 13.6323ZM43.5269 28.1557L34.7243 32.3975L26.4622 15.5512L35.2647 11.3105L43.5269 28.1557Z" fill="#061D54"/>
<path d="M43.5576 31.2008L37.1221 34.3011L38.3288 36.7623L44.7643 33.662L43.5576 31.2008Z" fill="#061D54"/>
<path d="M49.4589 49.1724L49.1996 53.0017L40.6836 35.6295L42.4103 34.7969L49.4589 49.1724Z" fill="#061D54"/>
</svg>
