<svg width="166" height="54" viewBox="0 0 166 54" fill="none" xmlns="http://www.w3.org/2000/svg">
<path d="M13.8727 34.1535H0.522924L5.55606 16.331H0V13.7468H10.0837L5.06473 31.565H13.8727V34.1535Z" fill="#061D54"/>
<path d="M13.8661 30.3998H10.5117V13.7911H17.2193C17.8194 13.789 18.4168 13.8686 18.9951 14.0276C19.5538 14.1819 20.09 14.4077 20.59 14.6992C21.0843 14.9895 21.5399 15.3399 21.9463 15.7424C22.3537 16.1458 22.707 16.5995 22.9976 17.0923C23.2915 17.5914 23.5193 18.1261 23.6752 18.683C23.9869 19.804 23.9948 20.9866 23.6981 22.1116C23.556 22.6477 23.3482 23.1645 23.0793 23.6505C22.8098 24.1383 22.478 24.5898 22.0923 24.9939C21.7041 25.4029 21.2648 25.7611 20.785 26.0597L24.7069 34.3598V37.0411L20.87 30.3998L19.1149 27.1126L13.8661 27.0759V30.3998ZM13.8661 17.1171V23.766H17.2193C17.665 23.7687 18.1065 23.6797 18.5157 23.5047C19.3202 23.167 19.9598 22.5311 20.298 21.7326C20.4713 21.3237 20.5606 20.8846 20.5606 20.441C20.5606 19.9975 20.4713 19.5584 20.298 19.1495C19.9604 18.3516 19.3227 17.7152 18.5201 17.3752C18.1108 17.2005 17.6693 17.1119 17.2237 17.115L13.8661 17.1171Z" fill="#061D54"/>
<path d="M28.5008 44.4566H24.9134L18.452 33.5216V44.4566H15.0977V27.8468H18.6851L25.1476 38.7925V27.0217H28.5008V44.4566Z" fill="#061D54"/>
<path d="M31.3732 -4.14185e-05L19.9033 5.52563L20.8824 7.52255L32.3523 1.99687L31.3732 -4.14185e-05Z" fill="#061D54"/>
<path d="M29.251 3.49082L23.9805 6.02991L26.2782 10.7162L31.5487 8.17715L29.251 3.49082Z" fill="#061D54"/>
<path d="M35.6858 6.18435L22.1426 12.7089L22.8402 14.1318L36.3835 7.60725L35.6858 6.18435Z" fill="#061D54"/>
<path d="M23.877 13.6323L34.6437 35.5919L46.1143 30.0661L35.3475 8.10754L23.877 13.6323ZM43.5269 28.1557L34.7243 32.3975L26.4622 15.5512L35.2647 11.3105L43.5269 28.1557Z" fill="#061D54"/>
<path d="M43.5576 31.2008L37.1221 34.3011L38.3288 36.7623L44.7643 33.662L43.5576 31.2008Z" fill="#061D54"/>
<path d="M49.4589 49.1724L49.1996 53.0017L40.6836 35.6295L42.4103 34.7969L49.4589 49.1724Z" fill="#061D54"/>
<path d="M60.8989 31.5164C60.9032 32.1813 60.7681 32.8399 60.5024 33.4505C59.9854 34.6415 59.0274 35.5907 57.8257 36.1027C57.2114 36.3684 56.548 36.5042 55.8778 36.5012H47.499V19.8871H55.8767C56.5476 19.8828 57.2121 20.017 57.8279 20.2812C59.0296 20.7932 59.9875 21.7424 60.5046 22.9334C60.7695 23.5442 60.9038 24.2027 60.8989 24.8675C60.8976 25.1885 60.8543 25.5079 60.7704 25.8178C60.6844 26.1427 60.5631 26.4573 60.4087 26.7562C60.2561 27.0518 60.0677 27.3277 59.8476 27.578C59.6384 27.8175 59.3942 28.0246 59.1232 28.1925C59.403 28.3455 59.6525 28.5475 59.8596 28.7886C60.0789 29.0418 60.2672 29.3199 60.4207 29.6169C60.5751 29.9171 60.6946 30.2337 60.7769 30.5607C60.8565 30.8732 60.8974 31.1941 60.8989 31.5164V31.5164ZM50.8501 26.5359H55.8745C56.0989 26.5378 56.3212 26.4944 56.5282 26.4085C56.7266 26.3257 56.9071 26.2058 57.0598 26.0554C57.2127 25.9024 57.3337 25.7212 57.4161 25.5219C57.5026 25.3145 57.5463 25.092 57.5446 24.8675C57.5473 24.5414 57.4521 24.2219 57.2711 23.9496C57.0901 23.6773 56.8315 23.4646 56.5282 23.3384C56.3211 23.253 56.0988 23.2096 55.8745 23.211H50.8534L50.8501 26.5359ZM50.8501 33.173H55.8745C56.0989 33.1748 56.3212 33.1315 56.5282 33.0455C56.8317 32.9196 57.0905 32.7069 57.2715 32.4345C57.4525 32.1622 57.5476 31.8425 57.5446 31.5164C57.5465 31.294 57.5027 31.0736 57.4161 30.8685C57.2485 30.4707 56.9295 30.1544 56.5282 29.9884C56.3212 29.9024 56.0989 29.8591 55.8745 29.8609H50.8534L50.8501 33.173Z" fill="#061D54"/>
<path d="M65.243 23.2107C65.2452 23.4938 65.1873 23.7741 65.073 24.0336C64.9642 24.283 64.8077 24.5093 64.6122 24.6999C64.4142 24.8908 64.1822 25.0438 63.9281 25.1513C63.6638 25.2624 63.3796 25.3197 63.0925 25.3197C62.8054 25.3197 62.5212 25.2624 62.2569 25.1513C61.7475 24.9382 61.3414 24.5375 61.1239 24.0336C61.0125 23.7744 60.9551 23.4956 60.9551 23.2139C60.9551 22.9322 61.0125 22.6534 61.1239 22.3943C61.3389 21.8875 61.7456 21.4843 62.2569 21.2712C62.5212 21.1601 62.8054 21.1028 63.0925 21.1028C63.3796 21.1028 63.6638 21.1601 63.9281 21.2712C64.1822 21.3786 64.4142 21.5317 64.6122 21.7226C64.8085 21.9146 64.965 22.1428 65.073 22.3943C65.186 22.6519 65.2439 22.9298 65.243 23.2107ZM64.6983 36.4934H61.4845V26.1156H64.6983V36.4934Z" fill="#061D54"/>
<path d="M78.0268 29.8716C78.0347 30.76 77.864 31.6411 77.5245 32.4633C77.2073 33.235 76.7431 33.939 76.1573 34.5367C75.5777 35.1217 74.8892 35.5896 74.1299 35.9147C73.3431 36.2474 72.4965 36.419 71.6411 36.419C70.7857 36.419 69.9391 36.2474 69.1523 35.9147C67.6013 35.2535 66.3768 34.0113 65.7457 32.459C65.4063 31.6367 65.2355 30.7557 65.2435 29.8673C65.235 28.9704 65.4057 28.0808 65.7457 27.2496C66.0621 26.4746 66.5284 25.7684 67.1184 25.1708C67.7 24.5867 68.3909 24.1205 69.1523 23.7983C69.9363 23.4638 70.7816 23.2939 71.6351 23.2994C72.4897 23.2931 73.3372 23.4527 74.1299 23.7691C74.8899 24.0719 75.5797 24.525 76.1573 25.1006C76.7464 25.6957 77.211 26.4004 77.5245 27.174C77.8691 28.0318 78.0398 28.9484 78.0268 29.8716V29.8716ZM74.813 29.8716C74.8195 29.3985 74.7344 28.9285 74.5624 28.4872C74.4057 28.0915 74.1734 27.7296 73.8782 27.4213C73.5934 27.1264 73.2494 26.8939 72.8683 26.7388C72.0772 26.422 71.193 26.422 70.4019 26.7388C70.0219 26.8929 69.6795 27.1256 69.3974 27.4213C69.106 27.7302 68.8778 28.0922 68.7253 28.4872C68.5567 28.9293 68.4735 29.399 68.4801 29.8716C68.4759 30.3268 68.559 30.7787 68.7253 31.2031C68.8791 31.5974 69.1072 31.9592 69.3974 32.269C69.6814 32.5701 70.0228 32.8123 70.4019 32.9817C70.7891 33.1558 71.2099 33.2446 71.6351 33.2419C72.0585 33.2444 72.4781 33.1618 72.8683 32.999C73.2479 32.8407 73.5914 32.6082 73.8782 32.3154C74.1753 32.0085 74.4078 31.6462 74.5624 31.2495C74.7335 30.8102 74.8185 30.3425 74.813 29.8716Z" fill="#061D54"/>
<path d="M89.6531 26.3275L87.3163 28.6558C87.2047 28.3409 87.0432 28.0457 86.8381 27.781C86.6438 27.5307 86.4132 27.3102 86.1539 27.1266C85.9024 26.9495 85.6245 26.8125 85.3303 26.7206C85.0352 26.6288 84.7277 26.5822 84.4185 26.5824C83.9929 26.58 83.5721 26.6711 83.1863 26.8491C82.8021 27.0253 82.4596 27.2796 82.1808 27.5953C81.8875 27.9312 81.66 28.3183 81.5097 28.7368C81.3406 29.2046 81.2572 29.6987 81.2635 30.1957C81.2602 30.6135 81.344 31.0275 81.5097 31.4116C81.6679 31.7829 81.8956 32.1211 82.1808 32.4084C82.4678 32.6961 82.8096 32.9244 83.1863 33.0801C83.863 33.3581 84.6151 33.3988 85.3183 33.1956C85.605 33.112 85.8785 32.9891 86.131 32.8306C86.3845 32.672 86.6129 32.4769 86.8087 32.2518C87.0067 32.0247 87.1701 31.77 87.2935 31.4959L89.6303 33.8241C89.3366 34.2386 88.9931 34.6161 88.6073 34.9483C88.2256 35.2776 87.8062 35.5614 87.3577 35.7939C86.9088 36.0254 86.4332 36.2024 85.9415 36.3208C85.4422 36.4411 84.9301 36.5012 84.4163 36.5001C83.5634 36.5056 82.7185 36.338 81.9335 36.0077C80.4033 35.3714 79.182 34.1712 78.5268 32.66C78.19 31.8847 78.019 31.0485 78.0246 30.2043C78.0177 29.2926 78.1882 28.388 78.5268 27.5402C78.8446 26.7415 79.3106 26.009 79.9006 25.3804C80.4762 24.7692 81.1667 24.2754 81.9335 23.9269C82.7116 23.5707 83.5592 23.3886 84.4163 23.3934C84.9355 23.3901 85.4529 23.4536 85.9556 23.5824C86.9677 23.8469 87.896 24.3606 88.6541 25.0759C89.0443 25.445 89.3805 25.8663 89.6531 26.3275Z" fill="#061D54"/>
<path d="M101.643 29.9525C101.651 30.841 101.48 31.7222 101.14 32.5443C100.823 33.3161 100.359 34.0202 99.7737 34.6177C99.1939 35.2024 98.5054 35.6703 97.7462 35.9956C96.9593 36.3283 96.1125 36.4999 95.2569 36.4999C94.4013 36.4999 93.5546 36.3283 92.7676 35.9956C91.2171 35.3339 89.9932 34.0919 89.362 32.5399C89.0217 31.7179 88.8506 30.8367 88.8587 29.9482C88.85 29.0512 89.0211 28.1615 89.362 27.3305C89.678 26.5553 90.1444 25.849 90.7347 25.2518C91.3161 24.6679 92.0066 24.2017 92.7676 23.8792C93.5519 23.5447 94.3976 23.3749 95.2515 23.3803C96.106 23.374 96.9535 23.5336 97.7462 23.8501C98.5061 24.1531 99.1959 24.6061 99.7737 25.1816C100.363 25.7764 100.827 26.4811 101.14 27.255C101.485 28.1125 101.656 29.0292 101.643 29.9525V29.9525ZM98.4293 29.9525C98.436 29.4793 98.3506 29.0092 98.1777 28.5681C98.0213 28.1725 97.7894 27.8106 97.4946 27.5023C97.2093 27.2073 96.865 26.9748 96.4836 26.8198C95.6929 26.503 94.809 26.503 94.0182 26.8198C93.6381 26.9736 93.2956 27.2063 93.0138 27.5023C92.722 27.8109 92.4937 28.1729 92.3416 28.5681C92.173 29.0102 92.0898 29.4799 92.0965 29.9525C92.0922 30.4078 92.1754 30.8596 92.3416 31.284C92.495 31.6786 92.7232 32.0404 93.0138 32.3499C93.2975 32.6512 93.639 32.8935 94.0182 33.0626C94.4055 33.2367 94.8262 33.3255 95.2515 33.3229C95.6745 33.3254 96.0937 33.2427 96.4836 33.0799C96.8635 32.9217 97.2073 32.6892 97.4946 32.3963C97.7913 32.0894 98.0234 31.7271 98.1777 31.3305C98.35 30.8914 98.4358 30.4236 98.4304 29.9525H98.4293Z" fill="#061D54"/>
<path d="M105.193 36.5011H102.002V24.092H102.773L103.822 25.5629C104.86 24.6317 106.209 24.1157 107.608 24.1147H110.424V27.2658H107.611C107.293 27.263 106.977 27.323 106.682 27.4425C106.388 27.5619 106.12 27.7384 105.895 27.9616C105.67 28.1848 105.492 28.4502 105.371 28.7424C105.251 29.0345 105.19 29.3476 105.193 29.6632V36.5011Z" fill="#061D54"/>
<path d="M116.071 33.242C116.192 33.2801 116.317 33.3054 116.444 33.3176C116.57 33.3294 116.694 33.3348 116.819 33.3348C117.124 33.336 117.427 33.293 117.719 33.2074C118.005 33.123 118.278 33.0002 118.53 32.8424C119.043 32.5205 119.448 32.0548 119.693 31.5044L122.03 33.8327C121.736 34.2472 121.393 34.6247 121.008 34.9568C120.626 35.286 120.206 35.5697 119.757 35.8024C119.308 36.0341 118.833 36.2107 118.341 36.3283C117.842 36.449 117.33 36.5095 116.816 36.5086C115.978 36.5134 115.147 36.3529 114.372 36.0364C113.597 35.72 112.894 35.2539 112.302 34.6653C111.712 34.0723 111.246 33.37 110.93 32.5983C110.587 31.7618 110.416 30.8661 110.427 29.9634C110.415 29.0435 110.586 28.1302 110.93 27.2756C111.234 26.5085 111.693 25.811 112.279 25.2256C112.864 24.6402 113.564 24.1791 114.335 23.8707C115.123 23.5515 115.968 23.3901 116.819 23.3955C117.333 23.3956 117.845 23.458 118.344 23.5813C119.335 23.8244 120.252 24.2991 121.02 24.9657C121.408 25.2989 121.753 25.6779 122.048 26.0942L116.071 33.242ZM117.705 26.7216C117.565 26.6675 117.418 26.6312 117.269 26.6136C117.119 26.5979 116.969 26.5899 116.819 26.5898C116.396 26.5875 115.977 26.6683 115.586 26.8274C115.207 26.9815 114.865 27.2125 114.581 27.5056C114.289 27.8114 114.061 28.1714 113.909 28.565C113.74 29.011 113.657 29.4847 113.664 29.9613C113.664 30.0768 113.669 30.2085 113.681 30.3543C113.693 30.5039 113.712 30.6528 113.739 30.8003C113.766 30.9515 113.8 31.0962 113.839 31.2323C113.874 31.3619 113.925 31.4868 113.991 31.6038L117.705 26.7216Z" fill="#061D54"/>
<path d="M126.809 34.5746C126.807 34.9417 126.774 35.308 126.71 35.6696C126.643 36.0646 126.537 36.4523 126.394 36.8272C126.25 37.2102 126.062 37.5757 125.834 37.9168C125.61 38.2546 125.327 38.5503 124.999 38.7905L123.725 37.9104C123.919 37.6987 124.083 37.4632 124.215 37.2095C124.322 36.9963 124.408 36.7736 124.473 36.5443C124.243 36.4991 124.022 36.4167 123.819 36.3002C123.62 36.1878 123.442 36.0416 123.294 35.8683C123.144 35.6922 123.026 35.4925 122.943 35.2776C122.857 35.0539 122.813 34.8162 122.814 34.5767C122.813 34.3138 122.867 34.0533 122.972 33.8122C123.075 33.5776 123.223 33.3653 123.408 33.1869C123.591 33.0096 123.805 32.8665 124.039 32.7647C124.279 32.6597 124.539 32.6064 124.802 32.6081C125.073 32.606 125.341 32.6593 125.59 32.7647C125.829 32.8643 126.047 33.0075 126.233 33.1869C126.416 33.3649 126.561 33.5775 126.66 33.8122C126.761 34.0539 126.812 34.3131 126.809 34.5746Z" fill="#061D54"/>
<path d="M133.364 36.0917H130.011V19.4819H133.364V36.0917Z" fill="#061D54"/>
<path d="M139.324 36.0918H136.134V23.686H136.905L137.956 24.8911C138.992 23.9578 140.342 23.4413 141.742 23.443C142.485 23.4382 143.221 23.5852 143.905 23.8749C144.569 24.1556 145.171 24.5608 145.68 25.0682C146.19 25.578 146.597 26.1795 146.879 26.8403C147.171 27.5232 147.32 28.2582 147.314 29.0001V36.0896H144.131V29.0023C144.133 28.6862 144.069 28.3732 143.945 28.0822C143.702 27.5116 143.246 27.0566 142.671 26.8133C142.38 26.6895 142.065 26.6267 141.748 26.6287C141.429 26.6268 141.114 26.6871 140.819 26.8063C140.525 26.9254 140.257 27.101 140.031 27.323C139.811 27.5396 139.637 27.7963 139.516 28.079C139.391 28.3697 139.327 28.6829 139.329 28.999L139.324 36.0918Z" fill="#061D54"/>
<path d="M160.52 26.1534L158.185 28.4817C158.072 28.1669 157.911 27.8717 157.705 27.607C157.511 27.3566 157.28 27.1361 157.021 26.9526C156.77 26.7756 156.492 26.639 156.198 26.5476C155.903 26.455 155.596 26.408 155.287 26.4083C154.861 26.4058 154.44 26.4969 154.054 26.675C153.67 26.8513 153.328 27.1055 153.049 27.4212C152.756 27.7571 152.528 28.1441 152.377 28.5627C152.209 29.0308 152.126 29.5247 152.132 30.0216C152.129 30.4393 152.212 30.8531 152.377 31.2376C152.536 31.6089 152.764 31.9471 153.049 32.2343C153.336 32.5219 153.677 32.7503 154.054 32.906C154.73 33.184 155.482 33.2247 156.186 33.0215C156.472 32.9381 156.746 32.8152 156.998 32.6565C157.252 32.4982 157.48 32.3031 157.676 32.0777C157.875 31.8511 158.038 31.5963 158.161 31.3218L160.498 33.649C160.205 34.0639 159.862 34.4415 159.476 34.7731C159.093 35.1023 158.674 35.386 158.225 35.6187C157.776 35.8507 157.301 36.0277 156.809 36.1457C156.309 36.266 155.797 36.3262 155.284 36.3249C154.43 36.3304 153.585 36.1629 152.8 35.8325C151.268 35.1952 150.047 33.9929 149.394 32.4794C149.057 31.7043 148.886 30.868 148.892 30.0238C148.884 29.1119 149.055 28.2073 149.394 27.3597C149.711 26.5608 150.177 25.8282 150.767 25.1999C151.343 24.5891 152.033 24.0954 152.8 23.7464C153.578 23.3905 154.426 23.2087 155.284 23.214C155.802 23.2132 156.318 23.2792 156.82 23.4105C157.832 23.6752 158.761 24.1889 159.519 24.904C159.91 25.2726 160.247 25.6931 160.52 26.1534V26.1534Z" fill="#061D54"/>
<path d="M166 34.9104C166.002 35.1783 165.951 35.4441 165.849 35.6922C165.752 35.928 165.609 36.1424 165.428 36.3229C165.247 36.5022 165.032 36.6458 164.796 36.7462C164.55 36.8488 164.285 36.9017 164.017 36.9017C163.749 36.9017 163.484 36.8488 163.238 36.7462C162.998 36.6463 162.78 36.5027 162.595 36.3229C162.408 36.1438 162.26 35.9293 162.159 35.6922C162.053 35.4451 161.999 35.179 162.001 34.9104C161.999 34.6474 162.053 34.3869 162.159 34.1458C162.261 33.9108 162.409 33.6982 162.595 33.5206C162.78 33.3408 162.998 33.1972 163.238 33.0972C163.484 32.9939 163.749 32.9407 164.017 32.9407C164.285 32.9407 164.55 32.9939 164.796 33.0972C165.032 33.1976 165.247 33.3412 165.428 33.5206C165.609 33.6996 165.751 33.9121 165.849 34.1458C165.951 34.388 166.002 34.648 166 34.9104Z" fill="#061D54"/>
</svg>
